[Header]
FileType HTR
DataType HTRS
FileVersion 1
NumSegments 64
NumFrames 3
DataFrameRate 30
EulerRotationOrder ZYX
CalibrationUnits mm
RotationUnits Degrees
GlobalAxisofGravity Y
BoneLengthAxis Y
ScaleFactor 1.0
[SegmentNames&Hierarchy]
Hips	GLOBAL
Spine	Hips
Spine1	Spine
Spine2	Spine1
Neck	Spine2
Head	Neck
LeftEye	Head
RightEye	Head
LeftShoulder	Spine2
LeftArm	LeftShoulder
LeftForeArm	LeftArm
LeftHand	LeftForeArm
LeftHandThumb1	LeftHand
LeftHandThumb2	LeftHandThumb1
LeftHandThumb3	LeftHandThumb2
LeftHandThumb4	LeftHandThumb3
LeftHandIndex1	LeftHand
LeftHandIndex2	LeftHandIndex1
LeftHandIndex3	LeftHandIndex2
LeftHandIndex4	LeftHandIndex3
LeftHandMiddle1	LeftHand
LeftHandMiddle2	LeftHandMiddle1
LeftHandMiddle3	LeftHandMiddle2
LeftHandMiddle4	LeftHandMiddle3
LeftHandRing1	LeftHand
LeftHandRing2	LeftHandRing1
LeftHandRing3	LeftHandRing2
LeftHandRing4	LeftHandRing3
LeftHandPinky1	LeftHand
LeftHandPinky2	LeftHandPinky1
LeftHandPinky3	LeftHandPinky2
LeftHandPinky4	LeftHandPinky3
RightShoulder	Spine2
RightArm	RightShoulder
RightForeArm	RightArm
RightHand	RightForeArm
RightHandPinky1	RightHand
RightHandPinky2	RightHandPinky1
RightHandPinky3	RightHandPinky2
RightHandPinky4	RightHandPinky3
RightHandRing1	RightHand
RightHandRing2	RightHandRing1
RightHandRing3	RightHandRing2
RightHandRing4	RightHandRing3
RightHandMiddle1	RightHand
RightHandMiddle2	RightHandMiddle1
RightHandMiddle3	RightHandMiddle2
RightHandMiddle4	RightHandMiddle3
RightHandIndex1	RightHand
RightHandIndex2	RightHandIndex1
RightHandIndex3	RightHandIndex2
RightHandIndex4	RightHandIndex3
RightHandThumb1	RightHand
RightHandThumb2	RightHandThumb1
RightHandThumb3	RightHandThumb2
RightHandThumb4	RightHandThumb3
LeftUpLeg	Hips
LeftLeg	LeftUpLeg
LeftFoot	LeftLeg
LeftToeBase	LeftFoot
RightUpLeg	Hips
RightLeg	RightUpLeg
RightFoot	RightLeg
RightToeBase	RightFoot
[BasePosition]
Hips	0	0	0	0	0	0	1
Spine	0	0	0	0	0	0	1
Spine1	0	0	0	0	0	0	1
Spine2	0	0	0	0	0	0	1
Neck	0	0	0	0	0	0	1
Head	0	0	0	0	0	0	1
LeftEye	0	0	0	0	0	0	1
RightEye	0	0	0	0	0	0	1
LeftShoulder	0	0	0	0	0	0	1
LeftArm	0	0	0	0	0	0	1
LeftForeArm	0	0	0	0	0	0	1
LeftHand	0	0	0	0	0	0	1
LeftHandThumb1	0	0	0	0	0	0	1
LeftHandThumb2	0	0	0	0	0	0	1
LeftHandThumb3	0	0	0	0	0	0	1
LeftHandThumb4	0	0	0	0	0	0	1
LeftHandIndex1	0	0	0	0	0	0	1
LeftHandIndex2	0	0	0	0	0	0	1
LeftHandIndex3	0	0	0	0	0	0	1
LeftHandIndex4	0	0	0	0	0	0	1
LeftHandMiddle1	0	0	0	0	0	0	1
LeftHandMiddle2	0	0	0	0	0	0	1
LeftHandMiddle3	0	0	0	0	0	0	1
LeftHandMiddle4	0	0	0	0	0	0	1
LeftHandRing1	0	0	0	0	0	0	1
LeftHandRing2	0	0	0	0	0	0	1
LeftHandRing3	0	0	0	0	0	0	1
LeftHandRing4	0	0	0	0	0	0	1
LeftHandPinky1	0	0	0	0	0	0	1
LeftHandPinky2	0	0	0	0	0	0	1
LeftHandPinky3	0	0	0	0	0	0	1
LeftHandPinky4	0	0	0	0	0	0	1
RightShoulder	0	0	0	0	0	0	1
RightArm	0	0	0	0	0	0	1
RightForeArm	0	0	0	0	0	0	1
RightHand	0	0	0	0	0	0	1
RightHandPinky1	0	0	0	0	0	0	1
RightHandPinky2	0	0	0	0	0	0	1
RightHandPinky3	0	0	0	0	0	0	1
RightHandPinky4	0	0	0	0	0	0	1
RightHandRing1	0	0	0	0	0	0	1
RightHandRing2	0	0	0	0	0	0	1
RightHandRing3	0	0	0	0	0	0	1
RightHandRing4	0	0	0	0	0	0	1
RightHandMiddle1	0	0	0	0	0	0	1
RightHandMiddle2	0	0	0	0	0	0	1
RightHandMiddle3	0	0	0	0	0	0	1
RightHandMiddle4	0	0	0	0	0	0	1
RightHandIndex1	0	0	0	0	0	0	1
RightHandIndex2	0	0	0	0	0	0	1
RightHandIndex3	0	0	0	0	0	0	1
RightHandIndex4	0	0	0	0	0	0	1
RightHandThumb1	0	0	0	0	0	0	1
RightHandThumb2	0	0	0	0	0	0	1
RightHandThumb3	0	0	0	0	0	0	1
RightHandThumb4	0	0	0	0	0	0	1
LeftUpLeg	0	0	0	0	0	0	1
LeftLeg	0	0	0	0	0	0	1
LeftFoot	0	0	0	0	0	0	1
LeftToeBase	0	0	0	0	0	0	1
RightUpLeg	0	0	0	0	0	0	1
RightLeg	0	0	0	0	0	0	1
RightFoot	0	0	0	0	0	0	1
RightToeBase	0	0	0	0	0	0	1
[Hips]
30	-1679.619751	977.4804688	5.622806549	9.185325623	-63.09833145	-4.512804508	1.0
31	-1735.956909	993.5484619	7.005280495	8.298852921	-64.38198853	-3.857553959	1.0
32	-1791.611816	1003.774475	8.521981239	6.461651802	-65.8102417	-1.896973252	1.0
[Spine]
30	0	101.8159943	1.315000057	5.894398212	5.49046278	2.670997381	1.0
31	0	101.8159943	1.315000057	5.931785583	6.280193329	1.893344998	1.0
32	0	101.8159943	1.315000057	5.909286022	7.150549412	0.7409800887	1.0
[Spine1]
30	0	100.8349991	-10.00800037	4.197856903	4.353878021	0.8432135582	1.0
31	0	100.8349991	-10.00800037	4.199122429	4.524451733	0.5346623063	1.0
32	0	100.8349991	-10.00800037	4.190162659	4.719126225	0.06328625977	1.0
[Spine2]
30	0	91	-13.73399925	4.178135872	4.366453648	0.8645329475	1.0
31	0	91	-13.73399925	4.180871964	4.541437149	0.5532711744	1.0
32	0	91	-13.73399925	4.16662693	4.742303371	0.08265637606	1.0
[Neck]
30	0	166.7169952	-25.16200066	4.240278244	5.478693008	2.085636139	1.0
31	0	166.7169952	-25.16200066	4.656890392	5.44503212	2.266178608	1.0
32	0	166.7169952	-25.16200066	4.899923325	5.424937725	2.349254847	1.0
[Head]
30	0	96.17900085	16.84999847	-12.78966999	33.45571518	-14.31228256	1.0
31	0	96.17900085	16.84999847	-11.87456417	33.73045731	-13.34392166	1.0
32	0	96.17900085	16.84999847	-11.2574358	33.86617661	-12.54304504	1.0
[LeftEye]
30	30.6760006	64.09500122	92.83599854	0	0	0	1.0
31	30.6760006	64.09500122	92.83599854	0	0	0	1.0
32	30.6760006	64.09500122	92.83599854	0	0	0	1.0
[RightEye]
30	-30.6760006	64.09500122	92.83499908	0	0	0	1.0
31	-30.6760006	64.09500122	92.83499908	0	0	0	1.0
32	-30.6760006	64.09500122	92.83499908	0	0	0	1.0
[LeftShoulder]
30	45.70400238	109.4599991	-26.28000069	0.6027154326	-1.191171765	-8.098621368	1.0
31	45.70400238	109.4599991	-26.28000069	0.7780058384	0.351054728	-7.760565758	1.0
32	45.70400238	109.4599991	-26.28000069	0.9621779919	1.829219341	-7.560995579	1.0
[LeftArm]
30	105.923996	-5.24600029	-22.32099915	18.09614754	-13.397892	-70.89545441	1.0
31	105.923996	-5.24600029	-22.32099915	17.96042061	-11.52100945	-70.17606354	1.0
32	105.923996	-5.24600029	-22.32099915	17.80803299	-9.60371685	-69.19064331	1.0
[LeftForeArm]
30	278.414978	-0.0009999999311	0	-5.026904546e-06	-34.17640686	-0.0002078340185	1.0
31	278.414978	-0.0009999999311	0	2.032896731e-07	-32.65849686	-0.0001919684	1.0
32	278.414978	-0.0009999999311	0	-2.152428351e-07	-29.93596458	-0.0002070822229	1.0
[LeftHand]
30	283.2879944	0	0	8.310077667	-24.61349678	5.770628929	1.0
31	283.2879944	0	0	6.696519375	-20.23982811	5.453330994	1.0
32	283.2879944	0	0	4.9868536	-15.62698174	4.980768681	1.0
[LeftHandThumb1]
30	24.6609993	-15.75	26.8239994	30.58115005	-20.32058144	11.29641056	1.0
31	24.6609993	-15.75	26.8239994	30.58115005	-20.32058144	11.29641056	1.0
32	24.6609993	-15.75	26.8239994	30.58115005	-20.32058144	11.29641056	1.0
[LeftHandThumb2]
30	32.29800034	-18.64699936	18.64699936	9.273184776	20.96404457	-1.17895031	1.0
31	32.29800034	-18.64699936	18.64699936	8.964408875	22.40534973	-1.106431484	1.0
32	32.29800034	-18.64699936	18.64699936	9.092969894	22.7931366	-1.047184825	1.0
[LeftHandThumb3]
30	26.52600098	-15.31499958	15.31499958	-15.00606823	8.352780342	9.93641758	1.0
31	26.52600098	-15.31499958	15.31499958	-14.99797821	8.371855736	9.930963516	1.0
32	26.52600098	-15.31499958	15.31499958	-14.99458313	8.379769325	9.928403854	1.0
[LeftHandThumb4]
30	19.54599953	-11.28499985	11.28499985	0	0	0	1.0
31	19.54599953	-11.28499985	11.28499985	0	0	0	1.0
32	19.54599953	-11.28499985	11.28499985	0	0	0	1.0
[LeftHandIndex1]
30	91.09299469	-5.170999527	22.60099792	-0.9622317553	-6.315195084	-19.80809784	1.0
31	91.09299469	-5.170999527	22.60099792	-0.9454345703	-6.192629337	-19.74910736	1.0
32	91.09299469	-5.170999527	22.60099792	-0.9293249846	-6.055152416	-19.71510696	1.0
[LeftHandIndex2]
30	36.76399994	0	0	-0.720156014	2.80933547	-28.75043106	1.0
31	36.76399994	0	0	-0.7236659527	2.815733433	-28.82209778	1.0
32	36.76399994	0	0	-0.7265728712	2.821029902	-28.88133621	1.0
[LeftHandIndex3]
30	28.83100128	0	0	-0.2973349094	1.84017086	-18.35579872	1.0
31	28.83100128	0	0	-0.2996629477	1.847162247	-18.42811584	1.0
32	28.83100128	0	0	-0.301597774	1.852934122	-18.48792458	1.0
[LeftHandIndex4]
30	23.92700005	0	0	0	0	0	1.0
31	23.92700005	0	0	0	0	0	1.0
32	23.92700005	0	0	0	0	0	1.0
[LeftHandMiddle1]
30	95.33399963	0	0	-2.373754501	2.052776098	-35.27582932	1.0
31	95.33399963	0	0	-2.371086836	2.050412655	-35.24668884	1.0
32	95.33399963	0	0	-2.354277372	2.078077793	-35.06433868	1.0
[LeftHandMiddle2]
30	36.98199844	0	0	-0.5658851862	2.508051872	-25.4256649	1.0
31	36.98199844	0	0	-0.5726377964	2.522184849	-25.5795002	1.0
32	36.98199844	0	0	-0.575884521	2.528939962	-25.65304947	1.0
[LeftHandMiddle3]
30	29.50900078	0	0	-0.3966808617	2.11601162	-21.23310852	1.0
31	29.50900078	0	0	-0.4024360478	2.130759716	-21.38856697	1.0
32	29.50900078	0	0	-0.4052054584	2.137824297	-21.46291542	1.0
[LeftHandMiddle4]
30	28.3390007	0	0	0	0	0	1.0
31	28.3390007	0	0	0	0	0	1.0
32	28.3390007	0	0	0	0	0	1.0
[LeftHandRing1]
30	91.04499817	-0.4390000105	-18.65100098	-2.04825592	3.832226038	-31.6435318	1.0
31	91.04499817	-0.4390000105	-18.65100098	-2.081213236	3.791052103	-32.01403046	1.0
32	91.04499817	-0.4390000105	-18.65100098	-2.092699528	3.786028624	-32.14300537	1.0
[LeftHandRing2]
30	31.54000092	0	0	-0.8724719882	3.070326805	-31.7195015	1.0
31	31.54000092	0	0	-0.8770336509	3.077698231	-31.80478859	1.0
32	31.54000092	0	0	-0.8770922422	3.077791452	-31.80587959	1.0
[LeftHandRing3]
30	29.37700081	0	0	-0.9699215889	3.222483158	-33.49521255	1.0
31	29.37700081	0	0	-0.9748016	3.229804754	-33.58179855	1.0
32	29.37700081	0	0	-0.9748718143	3.229899883	-33.58293915	1.0
[LeftHandRing4]
30	26.47500038	0	0	0	0	0	1.0
31	26.47500038	0	0	0	0	0	1.0
32	26.47500038	0	0	0	0	0	1.0
[LeftHandPinky1]
30	80.77799988	-4.887000084	-38.06099701	-1.842069268	4.170297146	-29.10095787	1.0
31	80.77799988	-4.887000084	-38.06099701	-1.810426235	4.368691444	-28.72914886	1.0
32	80.77799988	-4.887000084	-38.06099701	-1.784216762	4.448435307	-28.42149353	1.0
[LeftHandPinky2]
30	36	0	0	-0.4594382048	2.270796299	-22.87253189	1.0
31	36	0	0	-0.4589296877	2.269615889	-22.85990143	1.0
32	36	0	0	-0.4588976502	2.26957345	-22.85939789	1.0
[LeftHandPinky3]
30	21.14200211	0	0	-0.5246189237	2.419433594	-24.46584129	1.0
31	21.14200211	0	0	-0.5254832506	2.42133522	-24.48641205	1.0
32	21.14200211	0	0	-0.5247981548	2.41980195	-24.46986198	1.0
[LeftHandPinky4]
30	19.75699997	0	0	0	0	0	1.0
31	19.75699997	0	0	0	0	0	1.0
32	19.75699997	0	0	0	0	0	1.0
[RightShoulder]
30	-45.70000076	109.4620056	-26.28000069	0.004615306854	5.555649757	10.07210827	1.0
31	-45.70000076	109.4620056	-26.28000069	-0.6910256743	6.259814739	9.844388962	1.0
32	-45.70000076	109.4620056	-26.28000069	-1.381750941	6.859549522	9.584321022	1.0
[RightArm]
30	-105.9280014	-5.248000145	-22.32099915	27.70522308	10.55799866	60.36088562	1.0
31	-105.9280014	-5.248000145	-22.32099915	27.6207943	13.62851906	60.31817245	1.0
32	-105.9280014	-5.248000145	-22.32099915	27.00553131	16.25166893	60.08516693	1.0
[RightForeArm]
30	-278.414978	0	0	5.321317985e-06	8.699775696	6.961189683e-06	1.0
31	-278.414978	0	0	2.567764113e-06	10.11167145	1.676694046e-05	1.0
32	-278.414978	0	0	4.470090971e-06	12.09125233	2.60406141e-05	1.0
[RightHand]
30	-283.2879944	0	0.0009999999311	3.35885191	-3.715434074	-16.32613182	1.0
31	-283.2879944	0	0.0009999999311	6.272837639	-3.446782827	-19.291399	1.0
32	-283.2879944	0	0.0009999999311	6.633622169	-2.587033749	-20.85703659	1.0
[RightHandPinky1]
30	-80.76699829	-4.885000229	-38.06000137	-2.295057058	-4.7835989	37.16140747	1.0
31	-80.76699829	-4.885000229	-38.06000137	-2.268340111	-4.92662859	36.77812958	1.0
32	-80.76699829	-4.885000229	-38.06000137	-2.209704638	-4.754308224	36.15198135	1.0
[RightHandPinky2]
30	-36	0	0.0009999999311	-0.3952937126	-1.873754501	23.8428936	1.0
31	-36	0	0.0009999999311	-0.3994881213	-1.883228898	23.97095108	1.0
32	-36	0	0.0009999999311	-0.4033596814	-1.891906977	24.08837128	1.0
[RightHandPinky3]
30	-21.14200211	0	0	-0.1726926863	-1.25405705	15.68074417	1.0
31	-21.14200211	0	0	-0.1756098121	-1.264410138	15.81365776	1.0
32	-21.14200211	0	0	-0.1783319563	-1.273957372	15.93627167	1.0
[RightHandPinky4]
30	-19.75699997	0	0	0	0	0	1.0
31	-19.75699997	0	0	0	0	0	1.0
32	-19.75699997	0	0	0	0	0	1.0
[RightHandRing1]
30	-91.03599548	-0.4390000105	-18.65100098	-2.13765192	-7.096014023	35.43122482	1.0
31	-91.03599548	-0.4390000105	-18.65100098	-2.072182894	-7.04901123	34.60738373	1.0
32	-91.03599548	-0.4390000105	-18.65100098	-1.967576385	-6.914741039	33.2723999	1.0
[RightHandRing2]
30	-31.54000092	0	0	-0.3722289503	-1.820656419	23.10774422	1.0
31	-31.54000092	0	0	-0.3744302392	-1.825805306	23.17697716	1.0
32	-31.54000092	0	0	-0.3768687844	-1.831482172	23.25334549	1.0
[RightHandRing3]
30	-29.37700081	0	0	-0.267318666	-1.552032828	19.54372978	1.0
31	-29.37700081	0	0	-0.2692140639	-1.557371855	19.61375999	1.0
32	-29.37700081	0	0	-0.2713283896	-1.563294172	19.69145012	1.0
[RightHandRing4]
30	-26.47500038	0	0	0	0	0	1.0
31	-26.47500038	0	0	0	0	0	1.0
32	-26.47500038	0	0	0	0	0	1.0
[RightHandMiddle1]
30	-95.32500458	0	0	-1.976634383	-4.069451809	33.36128616	1.0
31	-95.32500458	0	0	-1.899890065	-3.627899647	32.38077927	1.0
32	-95.32500458	0	0	-1.795738816	-3.00451231	31.02389717	1.0
[RightHandMiddle2]
30	-36.98199844	0	0	-0.2430200279	-1.481838465	18.6259861	1.0
31	-36.98199844	0	0	-0.2428891808	-1.48144865	18.62092972	1.0
32	-36.98199844	0	0	-0.2419714183	-1.478723884	18.58541489	1.0
[RightHandMiddle3]
30	-29.50900078	0	0	-0.08792231977	-0.9010332823	11.17127991	1.0
31	-29.50900078	0	0	-0.08784394711	-0.9006416798	11.16632652	1.0
32	-29.50900078	0	0	-0.08729136735	-0.8978289366	11.13092422	1.0
[RightHandMiddle4]
30	-28.3390007	0	0.0009999999311	0	0	0	1.0
31	-28.3390007	0	0.0009999999311	0	0	0	1.0
32	-28.3390007	0	0.0009999999311	0	0	0	1.0
[RightHandIndex1]
30	-91.08300018	-5.167999744	22.60099792	-1.416336298	-0.03038628213	28.79844666	1.0
31	-91.08300018	-5.167999744	22.60099792	-1.379122138	0.7358415723	27.13134575	1.0
32	-91.08300018	-5.167999744	22.60099792	-1.300150633	1.678015113	24.88760757	1.0
[RightHandIndex2]
30	-36.76399994	0	0	-0.1032298356	-0.9733099341	12.1081171	1.0
31	-36.76399994	0	0	-0.1029164642	-0.9718481898	12.08963776	1.0
32	-36.76399994	0	0	-0.1023499146	-0.9692059159	12.05625916	1.0
[RightHandIndex3]
30	-28.83100128	0	0	-0.1073920205	-0.9925065041	12.35071278	1.0
31	-28.83100128	0	0	-0.1070685759	-0.991040051	12.3321619	1.0
32	-28.83100128	0	0	-0.1064906418	-0.9883850217	12.29859638	1.0
[RightHandIndex4]
30	-23.92700005	0	0	0	0	0	1.0
31	-23.92700005	0	0	0	0	0	1.0
32	-23.92700005	0	0	0	0	0	1.0
[RightHandThumb1]
30	-24.64799881	-15.72700024	26.82600021	-0.1902875453	0.8218618631	0.3671384752	1.0
31	-24.64799881	-15.72700024	26.82600021	-0.1902875453	0.8218618631	0.3671384752	1.0
32	-24.64799881	-15.72700024	26.82600021	-0.1902875453	0.8218618631	0.3671384752	1.0
[RightHandThumb2]
30	-32.29800034	-18.64699936	18.64699936	17.97594833	-4.101439953	-18.21602249	1.0
31	-32.29800034	-18.64699936	18.64699936	18.00967407	-4.555586815	-18.88949203	1.0
32	-32.29800034	-18.64699936	18.64699936	17.27405167	-4.989213467	-19.64346313	1.0
[RightHandThumb3]
30	-26.52600098	-15.31399918	15.31399918	-1.481659412	10.98391342	-25.01919556	1.0
31	-26.52600098	-15.31399918	15.31399918	-0.9955136776	9.824103355	-24.75688744	1.0
32	-26.52600098	-15.31399918	15.31399918	-0.2076753825	7.980185509	-24.29552269	1.0
[RightHandThumb4]
30	-19.54599953	-11.28499985	11.28499985	0	0	0	1.0
31	-19.54599953	-11.28499985	11.28499985	0	0	0	1.0
32	-19.54599953	-11.28499985	11.28499985	0	0	0	1.0
[LeftUpLeg]
30	82.07800293	-67.51699829	-15.99599934	-25.93364906	-0.6781695485	12.9373064	1.0
31	82.07800293	-67.51699829	-15.99599934	-30.27069855	0.373226285	8.528118134	1.0
32	82.07800293	-67.51699829	-15.99599934	-33.52001572	0.7759976983	4.070549011	1.0
[LeftLeg]
30	0	-443.7049866	2.845999956	71.23840332	-2.827613831	-9.080635071	1.0
31	0	-443.7049866	2.845999956	66.78690338	-2.52920866	-6.143826485	1.0
32	0	-443.7049866	2.845999956	58.1981926	-2.014471531	-3.384046078	1.0
[LeftFoot]
30	0	-444.2789917	-29.8219986	4.071591854	-0.5199736953	-2.229205847	1.0
31	0	-444.2789917	-29.8219986	0.7856473327	0.06711894274	-3.004803181	1.0
32	0	-444.2789917	-29.8219986	-2.188074827	-0.02084915154	-3.817920923	1.0
[LeftToeBase]
30	0	-87.28699493	107.1060028	-9.607129097	2.147688792e-05	-1.717903069e-05	1.0
31	0	-87.28699493	107.1060028	-8.750151634	-4.615629678e-06	-2.722163572e-06	1.0
32	0	-87.28699493	107.1060028	-7.809835434	3.138081956e-05	-9.35047683e-06	1.0
[RightUpLeg]
30	-82.07800293	-67.51699829	-15.99599934	-30.5082016	-7.301810265	4.606723785	1.0
31	-82.07800293	-67.51699829	-15.99599934	-24.01208687	-6.728574753	5.226784706	1.0
32	-82.07800293	-67.51699829	-15.99599934	-18.07670784	-6.421465397	5.223434925	1.0
[RightLeg]
30	0	-443.7049866	2.861999989	37.62987137	1.143872976	1.221790433	1.0
31	0	-443.7049866	2.861999989	32.40505981	1.30822289	1.174662232	1.0
32	0	-443.7049866	2.861999989	27.55138206	1.74879384	1.254596591	1.0
[RightFoot]
30	0	-444.2770081	-29.83799934	-12.48391628	-0.6719662547	-2.398712158	1.0
31	0	-444.2770081	-29.83799934	-13.46722889	-0.7568702698	-3.562934399	1.0
32	0	-444.2770081	-29.83799934	-14.46830654	-0.7107661963	-4.672802925	1.0
[RightToeBase]
30	0	-87.28699493	107.1060028	-8.701565742	-2.447652878e-05	2.196959031e-06	1.0
31	0	-87.28699493	107.1060028	-8.482230186	-2.362071245e-05	1.573531279e-07	1.0
32	0	-87.28699493	107.1060028	-8.163498878	1.286434599e-05	1.061985358e-06	1.0
[EndOfFile]
